<svg width="101" height="100" viewBox="0 0 101 100" fill="none" xmlns="http://www.w3.org/2000/svg">
<circle cx="50.5" cy="50" r="50" fill="white"/>
<circle cx="50.5" cy="50" r="40" fill="#F9F9FB"/>
<path d="M14 27C12.9 27 12 27.9 12 29C12 30.1 12.9 31 14 31C15.1 31 16 30.1 16 29C16 27.9 15.1 27 14 27Z" fill="#302803"/>
<path d="M78 12C77.4 12 77 12.4 77 13C77 13.6 77.4 14 78 14C78.6 14 79 13.6 79 13C79 12.4 78.6 12 78 12Z" fill="#D7B20E"/>
<path d="M51 13C30.6 13 14 29.6 14 50C14 70.4 30.6 87 51 87C71.4 87 88 70.4 88 50C88 29.6 71.4 13 51 13Z" fill="#FDF9E7"/>
<path d="M84 11C81.8 11 80 12.8 80 15C80 17.2 81.8 19 84 19C86.2 19 88 17.2 88 15C88 12.8 86.2 11 84 11Z" fill="#D7B20E"/>
<path d="M88 22C86.9 22 86 22.9 86 24C86 25.1 86.9 26 88 26C89.1 26 90 25.1 90 24C90 22.9 89.1 22 88 22Z" fill="#302803"/>
<path d="M82 74C80.9 74 80 74.9 80 76C80 77.1 80.9 78 82 78C83.1 78 84 77.1 84 76C84 74.9 83.1 74 82 74ZM16 59C13.8 59 12 60.8 12 63C12 65.2 13.8 67 16 67C18.2 67 20 65.2 20 63C20 60.8 18.2 59 16 59Z" fill="#D7B20E"/>
<path d="M26 85C24.9 85 24 85.9 24 87C24 88.1 24.9 89 26 89C27.1 89 28 88.1 28 87C28 85.9 27.1 85 26 85Z" fill="#302803"/>
<path d="M19.5 51C18.1 51 17 52.1 17 53.5C17 54.9 18.1 56 19.5 56C20.9 56 22 54.9 22 53.5C22 52.1 20.9 51 19.5 51Z" fill="white"/>
<path d="M22 66C21.4 66 21 66.4 21 67C21 67.6 21.4 68 22 68C22.6 68 23 67.6 23 67C23 66.4 22.6 66 22 66Z" fill="#D7B20E"/>
<path d="M81 33C80.4 33 80 33.4 80 34C80 34.6 80.4 35 81 35C81.6 35 82 34.6 82 34C82 33.4 81.6 33 81 33Z" fill="white"/>
<path d="M30.4996 69.2999C29.9996 69.2999 29.3996 69.1999 28.9996 67.9999C28.6996 67.0999 28.6996 66.0999 28.6996 65.2999L28.5996 37.6999V33.9999C28.5996 32.2999 29.8996 30.8999 31.4996 30.8999H49.0996C50.7996 30.8999 52.0996 32.3999 52.0996 34.0999V35.5999C52.0996 36.7999 53.0996 37.8999 54.2996 37.8999H70.3996C70.7996 37.8999 71.1996 38.2999 71.1996 38.7999V62.3999C71.1996 62.6999 71.1996 63.0999 71.1996 63.5999C71.2996 65.2999 71.2996 68.0999 70.7996 69.3999H30.4996V69.2999Z" fill="#FDF9E7"/>
<path d="M49.3 31.6C50.6 31.6 51.6 32.6999 51.6 34.0999V35.5999C51.6 37.1999 52.9 38.5999 54.5 38.5999H70.6C70.6 38.5999 70.7 38.6999 70.7 38.7999V62.4C70.7 62.7 70.7 63.1999 70.7 63.5999C70.7 64.8999 70.8 67.2999 70.5 68.6999H30.5C30.2 68.6999 29.9 68.7 29.7 67.9C29.5 67.1 29.5 66.0999 29.5 65.5V65.4L29.4 37.9V34C29.4 32.7 30.4 31.6 31.6 31.6H49.3ZM49.3 30.2H31.6C29.6 30.2 28 31.9 28 34V37.7999L28.1 65.3C28.1 66.7 28 70 30.6 70H71.4C72.5 68.4 72.1 64.0999 72.1 62.2999V38.7C72.1 37.8 71.4 37.0999 70.6 37.0999H54.5C53.7 37.0999 53 36.4 53 35.5V34C53 32 51.3 30.2 49.3 30.2Z" fill="#302803"/>
<path d="M30.6004 69.3C30.5004 69.3 30.5004 69.1999 30.4004 69.0999C31.6004 68.7999 31.7004 66.6 31.7004 64V42.2C31.7004 41.9 31.9004 41.7 32.2004 41.7H73.8004C74.1004 41.7 74.3004 41.9 74.3004 42.2V65.8C74.3004 67.7 72.8004 69.3 70.9004 69.3H30.6004Z" fill="#FDF9E7"/>
<path d="M73.5999 42.4V65.8C73.5999 67.3 72.3999 68.6 70.8999 68.6H31.8999C32.4999 67.4 32.4999 65.6 32.4999 63.9V42.4H73.5999ZM73.7999 41H32.1999C31.4999 41 30.9999 41.6 30.9999 42.2V63.9C30.9999 66.7 30.7999 68.4 29.9999 68.4C29.0999 68.4 29.6999 70 30.5999 70H70.8999C73.1999 70 74.9999 68.1 74.9999 65.8V42.2C74.9999 41.6 74.4999 41 73.7999 41Z" fill="#302803"/>
<path d="M42.5 35H31.5C31.2 35 31 34.8 31 34.5C31 34.2 31.2 34 31.5 34H42.5C42.8 34 43 34.2 43 34.5C43 34.8 42.8 35 42.5 35Z" fill="#302803"/>
<path d="M49.5 35H45.5C45.2 35 45 34.8 45 34.5C45 34.2 45.2 34 45.5 34H49.5C49.8 34 50 34.2 50 34.5C50 34.8 49.8 35 49.5 35Z" fill="#302803"/>
<path d="M52.4998 61.0999C49.4998 61.0999 47.7998 58.7999 47.6998 58.6999C47.3998 58.2999 47.4998 57.5999 47.8998 57.2999C48.2998 56.9999 48.9998 57.0999 49.2998 57.4999C49.2998 57.5999 50.4998 59.0999 52.4998 59.0999C54.4998 59.0999 55.6998 57.4999 55.6998 57.4999C55.9998 57.0999 56.6998 56.9999 57.0998 57.2999C57.4998 57.5999 57.5998 58.2999 57.2998 58.6999C57.2998 58.7999 55.4998 61.0999 52.4998 61.0999Z" fill="#302803"/>
<path d="M44.5 53.6001C45.8807 53.6001 47 52.4808 47 51.1001C47 49.7194 45.8807 48.6001 44.5 48.6001C43.1193 48.6001 42 49.7194 42 51.1001C42 52.4808 43.1193 53.6001 44.5 53.6001Z" fill="#302803"/>
<path d="M44.5 51.1001C45.0523 51.1001 45.5 50.6524 45.5 50.1001C45.5 49.5478 45.0523 49.1001 44.5 49.1001C43.9477 49.1001 43.5 49.5478 43.5 50.1001C43.5 50.6524 43.9477 51.1001 44.5 51.1001Z" fill="white"/>
<path d="M60.5 53.6001C61.8807 53.6001 63 52.4808 63 51.1001C63 49.7194 61.8807 48.6001 60.5 48.6001C59.1193 48.6001 58 49.7194 58 51.1001C58 52.4808 59.1193 53.6001 60.5 53.6001Z" fill="#302803"/>
<path d="M60.5 51.1001C61.0523 51.1001 61.5 50.6524 61.5 50.1001C61.5 49.5478 61.0523 49.1001 60.5 49.1001C59.9477 49.1001 59.5 49.5478 59.5 50.1001C59.5 50.6524 59.9477 51.1001 60.5 51.1001Z" fill="white"/>
<path d="M69.5 58.6001C69.5 60.5001 67.9 62.1001 66 62.1001C64.1 62.1001 62.5 60.5001 62.5 58.6001C62.5 58.1001 62.6 57.6001 62.8 57.1001C63.4 55.9001 64.6 55.1001 66 55.1001C68 55.1001 69.5 56.7001 69.5 58.6001Z" fill="#EFC610"/>
<path d="M66 62.3501C65.862 62.3501 65.748 62.2381 65.748 62.1001C65.748 61.9621 65.857 61.8501 65.995 61.8501C66.561 61.8501 67.119 61.6971 67.612 61.4071C67.731 61.3361 67.883 61.3771 67.955 61.4961C68.024 61.6151 67.985 61.7681 67.866 61.8391C67.295 62.1731 66.65 62.3501 66 62.3501ZM64.253 61.8681C64.21 61.8681 64.166 61.8571 64.126 61.8331C63.563 61.5011 63.09 61.0271 62.759 60.4611C62.69 60.3421 62.73 60.1901 62.849 60.1191C62.965 60.0481 63.12 60.0881 63.191 60.2091C63.479 60.7011 63.891 61.1141 64.38 61.4031C64.499 61.4721 64.538 61.6261 64.468 61.7451C64.422 61.8241 64.338 61.8681 64.253 61.8681ZM69.02 60.5931C68.977 60.5931 68.933 60.5821 68.893 60.5591C68.774 60.4891 68.735 60.3351 68.804 60.2161C69.096 59.7221 69.25 59.1621 69.25 58.6001C69.25 58.4621 69.361 58.3331 69.499 58.3331C69.638 58.3331 69.749 58.4291 69.749 58.5661H69.499L69.749 58.5791C69.75 59.2521 69.572 59.8981 69.235 60.4701C69.188 60.5491 69.104 60.5931 69.02 60.5931ZM62.5 58.8401C62.361 58.8401 62.25 58.7281 62.25 58.5901C62.251 58.0621 62.358 57.5291 62.567 57.0071C62.624 56.8931 62.675 56.7991 62.729 56.7091C62.8 56.5891 62.953 56.5521 63.072 56.6221C63.191 56.6931 63.229 56.8471 63.159 56.9651C63.111 57.0451 63.065 57.1271 63.023 57.2111C62.845 57.6561 62.751 58.1261 62.75 58.5911C62.75 58.7291 62.638 58.8401 62.5 58.8401ZM69.022 57.0721C68.936 57.0721 68.853 57.0281 68.806 56.9481C68.517 56.4551 68.104 56.0471 67.612 55.7681C67.492 55.7001 67.45 55.5471 67.517 55.4271C67.584 55.3071 67.738 55.2661 67.858 55.3321C68.427 55.6541 68.905 56.1251 69.238 56.6951C69.307 56.8141 69.267 56.9671 69.148 57.0371C69.109 57.0611 69.065 57.0721 69.022 57.0721ZM64.235 55.8181C64.149 55.8181 64.064 55.7731 64.018 55.6921C63.95 55.5731 63.991 55.4201 64.111 55.3511C64.677 55.0261 65.325 54.8531 65.983 54.8511H65.984C66.122 54.8511 66.234 54.9621 66.234 55.1001C66.234 55.2391 66.123 55.3511 65.985 55.3511C65.413 55.3531 64.851 55.5021 64.359 55.7851C64.32 55.8071 64.277 55.8181 64.235 55.8181Z" fill="#A78B0B"/>
<path d="M43.5 58.6001C43.5 60.5001 41.9 62.1001 40 62.1001C38.1 62.1001 36.5 60.5001 36.5 58.6001C36.5 58.1001 36.6 57.6001 36.8 57.1001C37.4 55.9001 38.6 55.1001 40 55.1001C42 55.1001 43.5 56.7001 43.5 58.6001Z" fill="#EFC610"/>
<path d="M40 62.3501C39.862 62.3501 39.748 62.2381 39.748 62.1001C39.748 61.9621 39.857 61.8501 39.996 61.8501C40.562 61.8501 41.12 61.6971 41.614 61.4071C41.73 61.3371 41.885 61.3761 41.956 61.4961C42.026 61.6151 41.986 61.7681 41.867 61.8391C41.295 62.1731 40.65 62.3501 40 62.3501ZM38.252 61.8681C38.209 61.8681 38.165 61.8571 38.125 61.8331C37.562 61.5011 37.089 61.0261 36.759 60.4611C36.689 60.3421 36.73 60.1891 36.849 60.1191C36.967 60.0481 37.121 60.0881 37.191 60.2091C37.479 60.7011 37.889 61.1131 38.379 61.4031C38.498 61.4721 38.538 61.6261 38.467 61.7451C38.421 61.8241 38.338 61.8681 38.252 61.8681ZM43.02 60.5931C42.977 60.5931 42.933 60.5821 42.893 60.5591C42.774 60.4891 42.734 60.3351 42.805 60.2161C43.097 59.7211 43.25 59.1621 43.25 58.6001C43.25 58.4621 43.362 58.3321 43.5 58.3321C43.638 58.3321 43.75 58.4281 43.75 58.5651H43.5L43.75 58.5891C43.75 59.2501 43.572 59.8981 43.235 60.4691C43.189 60.5491 43.105 60.5931 43.02 60.5931ZM36.5 58.8401C36.361 58.8401 36.25 58.7281 36.25 58.5891C36.251 58.0631 36.358 57.5301 36.568 57.0071C36.624 56.8921 36.676 56.7981 36.732 56.7061C36.803 56.5881 36.958 56.5521 37.075 56.6221C37.193 56.6941 37.23 56.8481 37.158 56.9661C37.11 57.0461 37.065 57.1281 37.023 57.2111C36.846 57.6571 36.751 58.1281 36.75 58.5911C36.75 58.7291 36.638 58.8401 36.5 58.8401ZM43.022 57.0721C42.936 57.0721 42.852 57.0271 42.806 56.9481C42.52 56.4551 42.107 56.0481 41.614 55.7681C41.494 55.7001 41.451 55.5471 41.519 55.4271C41.586 55.3071 41.74 55.2661 41.86 55.3321C42.431 55.6551 42.908 56.1271 43.239 56.6951C43.308 56.8151 43.268 56.9671 43.148 57.0371C43.108 57.0611 43.065 57.0721 43.022 57.0721ZM38.236 55.8181C38.15 55.8181 38.066 55.7731 38.019 55.6921C37.95 55.5731 37.992 55.4201 38.111 55.3511C38.676 55.0271 39.323 54.8541 39.982 54.8511C39.982 54.8511 39.982 54.8511 39.983 54.8511C40.121 54.8511 40.233 54.9621 40.233 55.1001C40.233 55.2381 40.122 55.3501 39.984 55.3511C39.411 55.3541 38.85 55.5031 38.36 55.7851C38.321 55.8071 38.278 55.8181 38.236 55.8181Z" fill="#A78B0B"/>
</svg>
